<svg id="シンボルマーク" xmlns="http://www.w3.org/2000/svg" xmlns:xlink="http://www.w3.org/1999/xlink" viewBox="0 0 510.23585 510.23622"><defs><style>.cls-1{fill:url(#名称未設定グラデーション_6);}.cls-2{fill:url(#名称未設定グラデーション_6-2);}.cls-3{fill:url(#名称未設定グラデーション_6-3);}.cls-4{fill:url(#名称未設定グラデーション_6-4);}.cls-5{fill:url(#名称未設定グラデーション_6-5);}.cls-6{fill:url(#名称未設定グラデーション_6-6);}.cls-7{fill:url(#名称未設定グラデーション_6-7);}.cls-8{fill:url(#名称未設定グラデーション_6-8);}</style><linearGradient id="名称未設定グラデーション_6" x1="37.46923" y1="516.10104" x2="547.06009" y2="46.35474" gradientUnits="userSpaceOnUse"><stop offset="0" stop-color="#00a0ff"/><stop offset="0.99962" stop-color="#ff0"/></linearGradient><linearGradient id="名称未設定グラデーション_6-2" x1="223.9951" y1="718.4483" x2="733.58596" y2="248.702" xlink:href="#名称未設定グラデーション_6"/><linearGradient id="名称未設定グラデーション_6-3" x1="111.37283" y1="596.27325" x2="620.96369" y2="126.52695" gradientTransform="translate(42.93968 -79.11853) rotate(9.21746)" xlink:href="#名称未設定グラデーション_6"/><linearGradient id="名称未設定グラデーション_6-4" x1="231.21963" y1="726.28563" x2="740.81049" y2="256.53933" gradientTransform="translate(903.30214 186.02512) rotate(80.78242)" xlink:href="#名称未設定グラデーション_6"/><linearGradient id="名称未設定グラデーション_6-5" x1="303.33502" y1="804.51795" x2="812.92587" y2="334.77164" xlink:href="#名称未設定グラデーション_6"/><linearGradient id="名称未設定グラデーション_6-6" x1="116.80937" y1="602.17092" x2="626.40023" y2="132.42462" xlink:href="#名称未設定グラデーション_6"/><linearGradient id="名称未設定グラデーション_6-7" x1="115.73824" y1="601.00894" x2="625.32909" y2="131.26263" xlink:href="#名称未設定グラデーション_6"/><linearGradient id="名称未設定グラデーション_6-8" x1="225.26629" y1="719.82731" x2="734.85714" y2="250.08101" xlink:href="#名称未設定グラデーション_6"/></defs><path class="cls-1" d="M347.51078,290.39556a60.09591,60.09591,0,1,0-60.09444-60.09663A60.09592,60.09592,0,0,0,347.51078,290.39556Z" transform="translate(-170.20365 -170.20375)"/><path class="cls-2" d="M598.27318,267.24592A82.13627,82.13627,0,0,0,531.24271,301.814a77.172,77.172,0,0,0-8.20825,14.38622A31.69018,31.69018,0,0,1,493.812,335.55374a31.20305,31.20305,0,0,1-23.12181-10.16748,9.47031,9.47031,0,0,1-1.65674-1.883A38.4156,38.4156,0,0,0,433.938,311.60649c-.754.14795-1.43079.29809-2.109.449a38.43363,38.43363,0,0,0,15.51488,75.24018,37.85772,37.85772,0,0,0,21.46361-11.7495,23.91129,23.91129,0,0,1,1.80908-2.10718,31.64095,31.64095,0,0,1,52.26742,8.88428q.11316.2263.22412.45263a81.04365,81.04365,0,0,0,20.56236,28.092,85.70953,85.70953,0,0,0,16.94567,11.67553,30.64238,30.64238,0,0,1,3.1626,1.5044,35.74715,35.74715,0,0,1,5.87475,58.82076,34.95821,34.95821,0,0,1-3.1626,2.335,51.16547,51.16547,0,1,0,60.55074-2.25806c0-.0769-.07544-.15015-.149-.0769a35.7456,35.7456,0,0,1,5.87293-58.82076c1.05541-.52588,2.03356-1.05542,3.089-1.5044a79.65152,79.65152,0,0,0,16.19164-10.99877,82.16995,82.16995,0,0,0-53.77291-144.29873Z" transform="translate(-170.20365 -170.20375)"/><circle class="cls-3" cx="512.2101" cy="226.77818" r="48.03467" transform="translate(-199.91551 -85.22868) rotate(-9.21746)"/><circle class="cls-4" cx="342.32771" cy="623.86573" r="48.03495" transform="translate(-498.52123 691.63594) rotate(-80.78242)"/><path class="cls-5" d="M503.13238,560.24889a60.09554,60.09554,0,1,0,60.0948,60.09664A60.09538,60.09538,0,0,0,503.13238,560.24889Z" transform="translate(-170.20365 -170.20375)"/><path class="cls-6" d="M447.80929,494.52726a38.66346,38.66346,0,0,0-44.51-31.177,37.83252,37.83252,0,0,0-21.46325,11.7495A24.58316,24.58316,0,0,1,380.027,477.207a31.63921,31.63921,0,0,1-52.26742-8.88867c-.07544-.15087-.15088-.30175-.22448-.44824a83.03935,83.03935,0,0,0-4.8208-9.26733,84.15633,84.15633,0,0,0-15.7412-18.82835,85.84914,85.84914,0,0,0-16.94567-11.67187,30.6478,30.6478,0,0,1-3.16259-1.50805,35.7437,35.7437,0,0,1-5.87476-58.8171,34.40565,34.40565,0,0,1,3.1626-2.335,51.16417,51.16417,0,1,0-60.55074,2.25805c0,.07691.07544.15015.149.07691a35.74263,35.74263,0,0,1-5.87292,58.8171c-1.05542.52954-2.03357,1.05541-3.089,1.50805a79.67862,79.67862,0,0,0-16.192,10.99511,82.18687,82.18687,0,1,0,120.80375,109.7343,77.3609,77.3609,0,0,0,8.20788-14.38622,31.68931,31.68931,0,0,1,29.22288-19.3579A31.207,31.207,0,0,1,379.95338,525.256a9.67853,9.67853,0,0,1,1.65674,1.88305,38.41925,38.41925,0,0,0,35.09544,11.90039c.754-.15088,1.43042-.30176,2.109-.45264A38.31524,38.31524,0,0,0,447.80929,494.52726Z" transform="translate(-170.20365 -170.20375)"/><path class="cls-7" d="M308.312,392.13622A34.01567,34.01567,0,1,0,342.3278,358.1211,34.01368,34.01368,0,0,0,308.312,392.13622Z" transform="translate(-170.20365 -170.20375)"/><path class="cls-8" d="M543.09915,458.20282a34.01567,34.01567,0,1,0-34.017,34.01438A34.01508,34.01508,0,0,0,543.09915,458.20282Z" transform="translate(-170.20365 -170.20375)"/></svg>